Coordinates
nRows=17
nColumns=24

# SIMM Motion File Header:
name Coordinates
datacolumns 24
datarows 17
otherdata 1
range 1.00133000000000010000 1.01733000000000010000
endheader
time	pelvis_tx	pelvis_ty	pelvis_tz	pelvis_tilt	pelvis_list	pelvis_rotation	hip_flexion_r	hip_adduction_r	hip_rotation_r	knee_angle_r	ankle_angle_r	subtalar_angle_r	mtp_angle_r	hip_flexion_l	hip_adduction_l	hip_rotation_l	knee_angle_l	ankle_angle_l	subtalar_angle_l	mtp_angle_l	lumbar_extension	lumbar_bending	lumbar_rotation
      1.00133000000000010000	     -0.43213614246803761000	      0.96577375945261312000	      0.27065324842330157000	      4.62169330295955480000	     -3.25708293842031840000	      7.52348238972760530000	     12.20786136903839200000	      3.62521092421758870000	      3.14373515130565770000	    -10.76405768032744000000	     -5.31332830110240020000	      0.00000000000001777592	     -0.00000000000008856936	    -12.88298665502433100000	     -5.09974762022254070000	      9.15441647702575170000	    -19.77326705775842800000	     12.35188797429356500000	      0.00000000000007954705	      0.00000000000033095043	    -10.50531902334099000000	      5.35228692852270530000	      1.11768672109522300000
      1.00232999999999990000	     -0.43142479543384965000	      0.96589383557304342000	      0.27067291957506273000	      4.62670890888743270000	     -3.25906287863449370000	      7.55023885309342190000	     12.15585258560212100000	      3.62722707390805300000	      3.08890584228907720000	    -10.76258640504822300000	     -5.27411594305419840000	      0.00000000000001795461	     -0.00000000000008909306	    -12.84603507380443700000	     -5.12313296056389160000	      9.09482803900277400000	    -19.90284769466205000000	     12.25946611229636900000	      0.00000000000007978111	      0.00000000000033019030	    -10.50324712887547900000	      5.37097012526710940000	      1.10374029256726060000
      1.00333000000000010000	     -0.43071344839966152000	      0.96601391169347384000	      0.27069259072682383000	      4.63172451481531230000	     -3.26104281884866950000	      7.57699531645924470000	     12.10384380216583700000	      3.62924322359851770000	      3.03407653327248460000	    -10.76111512976900600000	     -5.23490358500598860000	      0.00000000000001813329	     -0.00000000000008961676	    -12.80908349258453400000	     -5.14651830090524780000	      9.03523960097978400000	    -20.03242833156570400000	     12.16704425029915300000	      0.00000000000008001516	      0.00000000000032943018	    -10.50117523440997000000	      5.38965332201151790000	      1.08979386403929500000
      1.00432999999999990000	     -0.43000264466838733000	      0.96613427388493611000	      0.27071143716703772000	      4.63706518973606400000	     -3.26213070606714070000	      7.60350526959653110000	     12.05086898336144500000	      3.63016993487304380000	      2.97605078742919020000	    -10.75891864911136000000	     -5.19566408893221080000	      0.00000000000001831873	     -0.00000000000009013786	    -12.77086922264272500000	     -5.16953045273696970000	      8.97219042895890870000	    -20.16431315257765200000	     12.07011800402746900000	      0.00000000000008026210	      0.00000000000032863724	    -10.49950896756954000000	      5.40769775777437990000	      1.07554404688233030000
      1.00533000000000010000	     -0.42929184093711298000	      0.96625463607639839000	      0.27073028360725160000	      4.64240586465681650000	     -3.26321859328561060000	      7.63001522273382360000	     11.99789416455704000000	      3.63109664614756870000	      2.91802504158587790000	    -10.75672216845371300000	     -5.15642459285842490000	      0.00000000000001850417	     -0.00000000000009065896	    -12.73265495270090700000	     -5.19254260456869510000	      8.90914125693801220000	    -20.29619797358963100000	     11.97319175775575700000	      0.00000000000008050904	      0.00000000000032784429	    -10.49784270072911100000	      5.42574219353724540000	      1.06129422972536200000
      1.00632999999999990000	     -0.42858136442928935000	      0.96637501260846070000	      0.27074879151387621000	      4.64783960128824260000	     -3.26383456671670040000	      7.65635745594626020000	     11.94455471739578900000	      3.63146414794942810000	      2.85855896549074770000	    -10.75422682387949700000	     -5.11721846606022450000	      0.00000000000001866889	     -0.00000000000009119606	    -12.69375650003964400000	     -5.21534063203030930000	      8.84437400553141550000	    -20.42917456014464900000	     11.87342161405282100000	      0.00000000000008075871	      0.00000000000032703510	    -10.49631461785629000000	      5.44341788148162830000	      1.04692522053589720000
      1.00733000000000010000	     -0.42787121514491611000	      0.96649540348112339000	      0.27076696088691149000	      4.65336639963034490000	     -3.26397862636040510000	      7.68253196923385140000	     11.89085064187766100000	      3.63127244027861720000	      2.79765255914375910000	    -10.75143261538870800000	     -5.07804570853759250000	      0.00000000000001881287	     -0.00000000000009174914	    -12.65417386465891300000	     -5.23792453512181840000	      8.77788867473907250000	    -20.56324291224276700000	     11.77080757291859200000	      0.00000000000008101111	      0.00000000000032620966	    -10.49492471895108300000	      5.46072482160753390000	      1.03243701931392870000
      1.00832999999999990000	     -0.42716106586054303000	      0.96661579435378597000	      0.27078513025994677000	      4.65889319797244640000	     -3.26412268600411040000	      7.70870648252143730000	     11.83714656635954500000	      3.63108073260780630000	      2.73674615279678420000	    -10.74863840689791900000	     -5.03887295101496860000	      0.00000000000001895685	     -0.00000000000009230222	    -12.61459122927819400000	     -5.26050843821332230000	      8.71140334394674380000	    -20.69731126434085800000	     11.66819353178438600000	      0.00000000000008126351	      0.00000000000032538422	    -10.49353482004587500000	      5.47803176173343510000	      1.01794881809196340000
      1.00933000000000010000	     -0.42645164644660222000	      0.96673596297451914000	      0.27080274634633289000	      4.66448034892419990000	     -3.26341405386421490000	      7.73452594957574660000	     11.78295940338177200000	      3.62988882945941290000	      2.67331124501232640000	    -10.74537242584012200000	     -4.99981411723004590000	      0.00000000000001911969	     -0.00000000000009282804	    -12.57360009669477400000	     -5.28274024907071200000	      8.64171689183721270000	    -20.83337828108630800000	     11.55964306170633500000	      0.00000000000008151905	      0.00000000000032451248	    -10.49228664198369100000	      5.49465867096614780000	      1.00326923922713650000
      1.01033000000000000000	     -0.42574222703266162000	      0.96685613159525219000	      0.27082036243271901000	      4.67006749987595170000	     -3.26270542172431900000	      7.76034541663004960000	     11.72877224040401200000	      3.62869692631101910000	      2.60987633722788060000	    -10.74210644478232600000	     -4.96075528344513120000	      0.00000000000001928253	     -0.00000000000009335385	    -12.53260896411136500000	     -5.30497205992809560000	      8.57203043972769580000	    -20.96944529783173300000	     11.45109259162830500000	      0.00000000000008177460	      0.00000000000032364074	    -10.49103846392151100000	      5.51128558019885690000	      0.98858966036231255000
      1.01133000000000010000	     -0.42503346153980132000	      0.96697586786178036000	      0.27083760848870159000	      4.67555749430506840000	     -3.26137267641906890000	      7.78589085758453340000	     11.67444099129362200000	      3.62677002263831260000	      2.54472921438735700000	    -10.73856787165341800000	     -4.92178507076121720000	      0.00000000000001945448	     -0.00000000000009386435	    -12.49040095563020200000	     -5.32694977028534120000	      8.50004318602025140000	    -21.10701127052331900000	     11.33819404115729600000	      0.00000000000008200782	      0.00000000000032279136	    -10.48974810974479200000	      5.52739175513181280000	      0.97376276110662230000
      1.01233000000000000000	     -0.42432491402063460000	      0.96709546001024016000	      0.27085473120121634000	      4.68101510322663920000	     -3.25983189339203340000	      7.81134495650573600000	     11.62006171347237200000	      3.62459811879083380000	      2.47901135319482300000	    -10.73493843450080800000	     -4.88284439844431440000	      0.00000000000001962947	     -0.00000000000009436974	    -12.44778732184980000000	     -5.34884278047586560000	      8.42728899844684600000	    -21.24507689519692000000	     11.22384613055531800000	      0.00000000000008223360	      0.00000000000032194944	    -10.48844369686322700000	      5.54332435196484410000	      0.95888675505398080000
      1.01333000000000010000	     -0.42361663525127807000	      0.96721483574224443000	      0.27087173388719749000	      4.68641228053797400000	     -3.25807101571010450000	      7.83670420988289340000	     11.56567743237754100000	      3.62216913723788770000	      2.41276753884607140000	    -10.73123134078214100000	     -4.84394499937917370000	      0.00000000000001981071	     -0.00000000000009487945	    -12.40471687323738700000	     -5.37064487164732010000	      8.35377323331884190000	    -21.38366992074941900000	     11.10812435852954000000	      0.00000000000008246553	      0.00000000000032109882	    -10.48710050075323300000	      5.55906669250863580000	      0.94395441167495631000
      1.01433000000000000000	     -0.42290916273135265000	      0.96733356222488198000	      0.27088837649357805000	      4.69162816301859560000	     -3.25564985406348930000	      7.86177892662788920000	     11.51127814146201300000	      3.61896892256853550000	      2.34494586502871010000	    -10.72729127736530500000	     -4.80516942006935380000	      0.00000000000002001074	     -0.00000000000009540209	    -12.36027598012897300000	     -5.39217420576154180000	      8.27797273552707580000	    -21.52384514893849500000	     10.98828100223242100000	      0.00000000000008271592	      0.00000000000032022212	    -10.48564095495795500000	      5.57423826418468770000	      0.92885305631679427000
      1.01533000000000010000	     -0.42220169021142706000	      0.96745228870751965000	      0.27090501909995862000	      4.69684404549921910000	     -3.25322869241687360000	      7.88685364337289130000	     11.45687885054647400000	      3.61576870789918200000	      2.27712419121133360000	    -10.72335121394846700000	     -4.76639384075952590000	      0.00000000000002021076	     -0.00000000000009592474	    -12.31583508702054700000	     -5.41370353987576800000	      8.20217223773529190000	    -21.66402037712760300000	     10.86843764593527500000	      0.00000000000008296632	      0.00000000000031934542	    -10.48418140916267300000	      5.58940983586074310000	      0.91375170095862890000
      1.01633000000000000000	     -0.42149513153241153000	      0.96757027955633568000	      0.27092130850052509000	      4.70189288813767980000	     -3.25019141421155000000	      7.91167089632882450000	     11.40249083860463100000	      3.61186034010334290000	      2.20790801150818480000	    -10.71919486088873600000	     -4.72780806801025830000	      0.00000000000002042061	     -0.00000000000009647097	    -12.27003971821652000000	     -5.43502496942929800000	      8.12423026313800280000	    -21.80575035927408200000	     10.74494213134579600000	      0.00000000000008323237	      0.00000000000031844303	    -10.48263025870580600000	      5.60405777436522620000	      0.89846382292397098000
      1.01733000000000010000	     -0.42078887746703236000	      0.96768802519387787000	      0.27093748016582025000	      4.70688605082875270000	     -3.24694876381998700000	      7.93640232802174150000	     11.34810658632067000000	      3.60771592126533670000	      2.13822699650975110000	    -10.71496641128137000000	     -4.68928556411449990000	      0.00000000000002063374	     -0.00000000000009702506	    -12.22379285751393900000	     -5.45627709746259980000	      8.04557446293884660000	    -21.94799859273973300000	     10.62022923065882200000	      0.00000000000008350363	      0.00000000000031753209	    -10.48104857336174200000	      5.61853116847918700000	      0.88311377066381025000
